# xmcd
#
# Track frame offsets:
#	150
#	14769
#	29980
#	45295
#	63124
#	78463
#	96529
#	119956
#	132939
#
# Disc length: 2097 seconds
# Revision: 0
# Processed by: cddbd v1.5.2PL0 Copyright (c) Steve Scherf et al.
# Submitted via: dBpowerAMP V12.0
#
DISCID=83082f09
DTITLE=Leo Hull and the Texas Blues Machine - Bootleggin' The Blues
DYEAR=2012
DGENRE=Blues Texas
TTITLE0=Bootleggin' Blues
TTITLE1=The Hustle
TTITLE2=Road Hard
TTITLE3=Blow Torch Baby
TTITLE4=Whiskey and Women
TTITLE5=The Road
TTITLE6=Pistol # 69
TTITLE7=Running Away Again
TTITLE8=Between You And Me
EXTD=
EXTT0=
EXTT1=
EXTT2=
EXTT3=
EXTT4=
EXTT5=
EXTT6=
EXTT7=
EXTT8=
PLAYORDER=
